<svg width="32" height="33" viewBox="0 0 32 33" fill="none" xmlns="http://www.w3.org/2000/svg">
<g clip-path="url(#clip0_283_77)">
<path d="M1.33301 1.83337H6.66634L10.2397 19.6867C10.3616 20.3006 10.6956 20.852 11.1831 21.2444C11.6706 21.6369 12.2806 21.8454 12.9063 21.8334H25.8663C26.4921 21.8454 27.1021 21.6369 27.5896 21.2444C28.0771 20.852 28.4111 20.3006 28.533 19.6867L30.6663 8.50004H7.99967M13.333 28.5C13.333 29.2364 12.7361 29.8334 11.9997 29.8334C11.2633 29.8334 10.6663 29.2364 10.6663 28.5C10.6663 27.7637 11.2633 27.1667 11.9997 27.1667C12.7361 27.1667 13.333 27.7637 13.333 28.5ZM27.9997 28.5C27.9997 29.2364 27.4027 29.8334 26.6663 29.8334C25.93 29.8334 25.333 29.2364 25.333 28.5C25.333 27.7637 25.93 27.1667 26.6663 27.1667C27.4027 27.1667 27.9997 27.7637 27.9997 28.5Z" stroke="#6A9C89" stroke-width="3" stroke-linecap="round" stroke-linejoin="round"/>
</g>
<defs>
<clipPath id="clip0_283_77">
<rect width="32" height="32" fill="white" transform="translate(0 0.5)"/>
</clipPath>
</defs>
</svg>
