<svg width="57" height="55" viewBox="0 0 57 55" fill="none" xmlns="http://www.w3.org/2000/svg">
<path d="M21.2124 26.4562C23.7667 23.2268 23.8414 19.0236 21.3792 17.068C18.917 15.1125 14.8503 16.1451 12.2959 19.3745C9.74159 22.6039 9.66692 26.8071 12.1291 28.7627C14.5914 30.7182 18.6581 29.6856 21.2124 26.4562Z" fill="black"/>
<path d="M32.5235 27.1594C32.5235 28.9723 30.4633 30.6719 28.3398 30.6719C26.2163 30.6719 24.043 29.3123 24.043 27.1594C24.043 25.6864 25.3999 25.6864 28.0006 25.6864C30.3751 25.6864 32.5235 25.4598 32.5235 27.1594Z" fill="black"/>
<path d="M20.2545 31.7483C20.0668 34.7045 22.7285 37.3287 25.6945 36.7486C26.9858 36.4959 28.164 35.5339 28.7916 34.3918C29.5334 33.0434 29.3456 31.3778 29.2405 29.8946C29.1783 29.0244 29.0584 28.1622 28.864 27.3112C28.5394 25.8904 26.3582 26.492 26.6827 27.914C26.7359 28.144 26.789 28.3741 26.8309 28.6075C26.8501 28.7128 26.8659 28.8171 26.8829 28.9225C26.9213 29.1649 26.8603 28.706 26.8942 28.9984C26.9259 29.2737 26.9541 29.5491 26.9745 29.8255C27.0344 30.6221 27.0491 31.422 27.0446 32.2208C27.0435 32.3999 27.0582 32.5857 27.0333 32.7624C27.057 32.5902 26.9654 32.9755 26.9462 33.0242C26.8286 33.3222 26.6409 33.5907 26.4215 33.8207C26.3605 33.8842 26.0134 34.189 26.166 34.0734C25.9557 34.232 25.7261 34.3714 25.4853 34.4598C24.8724 34.6853 24.2415 34.5776 23.6987 34.2332C22.8925 33.7221 22.4538 32.7296 22.516 31.7472C22.5544 31.1354 21.9687 30.6141 21.3852 30.6141C20.7407 30.6141 20.2929 31.1342 20.2545 31.7472V31.7483Z" fill="black"/>
<path d="M33.996 31.7449C34.0582 32.7217 33.615 33.7233 32.8133 34.2309C32.2694 34.5754 31.6407 34.683 31.0267 34.4575C30.8005 34.3748 30.5936 34.2468 30.3923 34.104C30.3234 34.0541 30.3302 34.0598 30.415 34.1221C30.372 34.0859 30.329 34.0496 30.2872 34.0111C30.2216 33.9465 30.1549 33.8842 30.0916 33.8173C29.8903 33.6066 29.7049 33.3584 29.5895 33.0888C29.4323 32.7183 29.4708 32.6627 29.4674 32.2174C29.4617 31.4186 29.4776 30.6187 29.5375 29.8221C29.5579 29.5457 29.5861 29.2703 29.6178 28.995C29.6517 28.7027 29.5907 29.1616 29.6291 28.9191C29.6461 28.8137 29.6619 28.7083 29.6811 28.6041C29.7229 28.3718 29.7761 28.1418 29.8292 27.9106C30.1538 26.4909 27.9737 25.8847 27.648 27.3078C27.492 27.9922 27.3823 28.6823 27.3145 29.3814C27.2466 30.0805 27.2195 30.7411 27.2093 31.4232C27.198 32.2106 27.155 33.0129 27.4377 33.7618C27.9307 35.0682 28.9823 36.0993 30.2815 36.5911C31.8024 37.1656 33.4567 36.7078 34.6473 35.6631C35.7419 34.7023 36.3502 33.1998 36.2586 31.7461C36.2202 31.1354 35.7668 30.613 35.1279 30.613C34.5456 30.613 33.9576 31.132 33.9972 31.7461L33.996 31.7449Z" fill="black"/>
<path d="M15.3358 34.8643C15.9603 34.8643 16.4666 34.3571 16.4666 33.7313C16.4666 33.1055 15.9603 32.5982 15.3358 32.5982C14.7113 32.5982 14.2051 33.1055 14.2051 33.7313C14.2051 34.3571 14.7113 34.8643 15.3358 34.8643Z" fill="black"/>
<path d="M41.0038 34.8643C41.6283 34.8643 42.1345 34.3571 42.1345 33.7313C42.1345 33.1055 41.6283 32.5982 41.0038 32.5982C40.3793 32.5982 39.873 33.1055 39.873 33.7313C39.873 34.3571 40.3793 34.8643 41.0038 34.8643Z" fill="black"/>
<path d="M28.1133 48.2912C40.1972 48.2912 49.9931 38.2721 49.9931 25.913C49.9931 13.5539 40.1972 3.53491 28.1133 3.53491C16.0293 3.53491 6.2334 13.5539 6.2334 25.913C6.2334 38.2721 16.0293 48.2912 28.1133 48.2912Z" stroke="black" stroke-width="2" stroke-miterlimit="10"/>
<path d="M6.55695 20.3724C4.93885 19.7038 3.45871 18.7215 2.34606 17.3539C0.8026 15.3245 0.0280429 12.7332 0.220269 10.177C0.407972 8.10574 1.20062 5.94611 2.58578 4.30429C3.48246 3.24147 4.61546 2.36334 5.88076 1.79114C9.46295 0.135723 14.0481 0.882418 16.7709 3.75135C17.2764 4.28163 17.7095 4.86742 18.0385 5.50647L15.4604 7.90858C15.0115 7.71256 14.5841 7.5426 14.1623 7.4089C12.4492 6.86276 10.38 6.90129 8.82408 7.80321C7.66055 8.48532 7.05334 9.58213 6.68812 10.8863C6.37603 12.076 6.54111 13.37 6.85207 14.5563C7.06691 15.1602 7.40274 15.6973 7.75101 16.2423C8.02691 16.6638 8.34013 17.1012 8.62281 17.517L6.55469 20.3724H6.55695Z" fill="black"/>
<path d="M47.5348 17.3981C48.1997 16.5041 48.9471 15.6021 49.3756 14.571C49.7115 13.4708 49.8856 12.2664 49.6741 11.1367C49.5136 10.4591 49.3134 9.8926 49.0047 9.34419C48.6384 8.70174 48.1137 8.17373 47.4782 7.80889C46.2717 7.12224 44.7441 7.00101 43.3725 7.23782C42.5245 7.39871 41.7635 7.70464 40.9742 8.10008L38.0908 5.41244C40.0493 2.05062 44.2364 0.468856 48.0006 1.13623C52.3766 1.90672 55.364 5.42377 55.9701 9.7317C56.341 12.4352 55.5902 15.2486 53.9868 17.4354C53.323 18.3034 52.4806 19.0229 51.5851 19.6234C51.022 19.9973 50.4691 20.31 49.8483 20.591L47.5348 17.3969V17.3981Z" fill="black"/>
<path d="M28.1701 53.0501C41.6591 53.0501 52.5942 41.9657 52.5942 28.2925C52.5942 14.6193 41.6591 3.53491 28.1701 3.53491C14.6811 3.53491 3.74609 14.6193 3.74609 28.2925C3.74609 41.9657 14.6811 53.0501 28.1701 53.0501Z" stroke="black" stroke-width="2" stroke-miterlimit="10"/>
<path d="M44.1819 28.713C46.6442 26.7574 46.5695 22.5542 44.0152 19.3248C41.4608 16.0954 37.3941 15.0628 34.9319 17.0183C32.4697 18.9739 32.5443 23.1771 35.0987 26.4065C37.653 29.6359 41.7197 30.6685 44.1819 28.713Z" fill="black"/>
<path d="M17.9363 22.8538C18.8731 22.8538 19.6325 22.0929 19.6325 21.1542C19.6325 20.2155 18.8731 19.4546 17.9363 19.4546C16.9996 19.4546 16.2402 20.2155 16.2402 21.1542C16.2402 22.0929 16.9996 22.8538 17.9363 22.8538Z" fill="white"/>
<path d="M38.4031 22.8538C39.3399 22.8538 40.0993 22.0929 40.0993 21.1542C40.0993 20.2155 39.3399 19.4546 38.4031 19.4546C37.4664 19.4546 36.707 20.2155 36.707 21.1542C36.707 22.0929 37.4664 22.8538 38.4031 22.8538Z" fill="white"/>
</svg>
