<svg width="600" height="330" viewBox="0 0 600 330" fill="none" xmlns="http://www.w3.org/2000/svg">
<g clip-path="url(#clip0_273_1513)">
<path d="M497.408 162.961C498.174 163.524 498.965 164.105 499.756 164.687L500.02 164.84C498.916 164.044 497.401 162.955 497.401 162.955L497.408 162.961Z" fill="black" stroke="black" stroke-width="9" stroke-miterlimit="10"/>
<path d="M571.129 116.223C576.525 119.307 581.228 121.993 585.931 124.679C585.802 125.162 585.673 125.646 585.551 126.123C581.859 126.27 578.174 126.49 574.489 126.539C553.819 126.814 533.462 125.229 514.165 116.835C507.978 114.149 504.649 115.195 494.544 121.773C525.018 116.266 546.32 130.087 563.415 152.774C563.219 153.294 563.722 153.153 562.385 153.955C561.281 154.402 560.012 153.612 559.773 153.514C547.644 148.858 534.498 146.558 521.168 142.789C515.453 141.174 509.677 139.351 504.459 136.616C501.356 134.988 498.621 131.758 496.948 128.601C495.519 125.903 493.949 124.434 491.349 125.095C486.266 126.398 481.036 127.665 476.394 129.983C467 134.676 459.054 141.419 451.916 149.134C456.215 152.884 467.276 153.851 471.709 151.061C484.923 142.746 499.087 140.354 514.024 145.077C521.1 147.317 527.888 150.504 534.719 153.459C536.399 154.187 537.736 155.686 540.201 157.577C524.019 158.183 509.18 158.746 494.348 159.302C494.293 160.049 494.237 160.801 494.188 161.548C495.562 162.337 496.003 162.496 497.91 163.597L499.762 164.687C510.891 172.867 524.565 182.864 534.97 190.506C534.676 191.112 534.375 191.717 534.081 192.323C516.747 193.81 500.461 190.334 484.617 180.429C487.824 197.854 489.97 208.61 482.415 225.839C481.256 224.089 480.398 229.345 480.171 228.543C476.817 216.454 473.126 204.437 470.348 192.213C468.196 182.754 466.871 173.062 465.848 163.408C465.394 159.1 463.757 156.525 459.888 155.35C452.959 153.245 446.588 152.523 441.137 159.351C434.956 167.103 427.911 174.176 421.221 181.524C420.485 182.326 419.614 183.011 418.805 183.751C418.376 183.574 417.941 183.396 417.511 183.219C417.922 181.806 417.867 179.823 418.805 179.065C430.903 169.33 430.443 154.396 434.692 141.425C435.747 138.206 434.067 136.585 431.301 135.312C412.802 126.82 402.574 110.423 392.138 94.2525L391.531 91.6033C410.349 94.742 423.557 104.856 433.245 120.567C436.391 103.54 444.006 89.0397 451.812 74.7534C451.91 75.0104 452.008 75.2674 452.112 75.5182C452.499 76.4421 452.615 77.1946 452.799 78.6508C453.026 80.5046 453.124 82.0587 453.553 84.1206C454.455 88.4156 452.873 93.2246 452.401 97.8929C459.035 90.6672 465.829 83.264 472.623 75.8608C473.028 76.0321 473.432 76.2096 473.831 76.3809C472.494 81.0063 471.464 85.7419 469.766 90.2327C463.45 106.954 455.197 122.488 441.848 134.884C440.131 136.481 438.776 138.831 438.089 141.088C436.029 147.843 434.386 154.72 432.577 161.554C433.012 161.835 433.448 162.123 433.883 162.404C435.594 160.838 437.329 159.309 439.003 157.706C446.888 150.149 454.706 142.526 462.647 135.031C465.976 131.892 468.086 128.809 468.398 123.669C468.76 117.735 471.268 111.855 473.291 106.11C477.663 93.6957 483.58 81.9669 492.134 71.9512C497.561 65.5943 504.232 60.2958 510.407 54.5813C511.057 53.9817 512.081 53.786 514.171 52.8499C509.53 68.8064 502.129 82.383 496.518 96.7732C507.365 80.9452 521.395 68.9471 539.538 59.4515C538.692 61.7581 538.527 62.7187 538.036 63.4651C529.93 75.7568 522.541 88.6236 513.368 100.065C507.715 107.125 499.351 112.032 492.146 117.832C490.896 118.842 489.356 119.491 488.326 121.081C494.605 118.193 500.915 115.355 507.145 112.35C508.089 111.892 508.855 110.76 509.376 109.762C519.365 90.6794 536.454 80.7371 556.002 74.3618C563.182 72.0185 570.853 71.1436 578.315 69.6752C578.996 69.5406 579.793 69.9873 581.154 70.3115C571.19 79.1158 561.668 87.5407 551.146 96.8405C550.821 97.122 550.821 97.3973 550.575 97.8011C549.858 98.9575 546.547 104.14 546.547 104.14C546.246 104.476 546.228 104.574 546.302 104.574C546.345 104.574 546.418 104.543 546.486 104.507C562.14 101.503 577.825 99.7712 593.669 101.778C593.89 102.286 594.111 102.788 594.325 103.295C586.881 107.444 579.437 111.592 571.129 116.223Z" fill="black"/>
<path d="M573.888 116.242C578.732 118.169 583 119.582 587.396 122.128L589.346 123.217C589.095 124.122 588.659 125.988 588.42 126.863L587.887 128.974C583.227 129.188 578.609 129.525 573.839 129.592C557.927 129.867 541.776 128.943 526.361 124.52C522.48 123.425 518.654 122.115 514.926 120.567C513.583 120.072 511.345 118.958 509.996 118.75C508.598 118.463 507.347 118.585 505.82 119.087C502.558 120.231 499.253 122.427 496.218 124.349L493.992 118.763C519.5 114.149 542.898 123.033 558.136 144.092C560.208 146.772 562.219 149.47 564.218 152.169L564.359 153.135C564.359 153.135 564.359 153.123 564.365 153.092C564.359 153.074 564.384 153.062 564.335 153.374C564.286 153.631 564.126 153.912 563.961 154.065C563.568 154.426 563.158 154.659 562.747 154.879C561.324 155.393 560.312 154.867 559.184 154.371C545.345 149.164 530.666 146.943 516.514 142.685C511.43 141.052 506.047 139.473 501.601 136.414C499.326 134.676 497.524 132.51 496.077 130.118C495.028 128.362 493.973 125.799 491.515 126.722C490.638 126.949 489.086 127.402 488.204 127.64C474.352 131.03 463.106 140.354 453.94 151C453.94 151.006 453.731 147.06 453.725 147.06C457.386 149.948 465.903 150.908 470.14 148.779C485.861 138.733 503.067 137.283 520.346 144.374C525.006 146.148 529.519 148.179 534.026 150.156L535.369 150.743C537.846 151.691 539.875 153.906 541.874 155.393L547.92 160.043L540.292 160.33L494.439 162.056L497.088 159.504L496.929 161.725L495.555 159.162C497.407 160.177 499.474 161.285 501.276 162.386C501.387 162.539 536.478 188.15 536.601 188.291L537.447 191.711L534.314 192.439C534.314 192.439 534.155 192.58 534.148 192.58C516.74 195.137 498.48 191.595 483.145 182.766L487.321 179.933C488.02 183.733 488.737 187.551 489.32 191.454C491.404 203.991 490.215 215.297 484.935 226.947L480.104 227.363C480.373 227.877 481.428 228.348 482.201 228.225C482.679 228.201 483.421 227.797 483.574 227.565C483.727 227.387 483.697 227.399 483.684 227.436C483.531 227.724 483.409 228.103 483.268 228.501L483.084 229.033L482.949 229.382L482.832 229.645C482.765 229.767 482.74 229.865 482.495 230.22C481.508 231.67 478.767 231.957 477.712 229.841C477.571 229.541 477.559 229.498 477.498 229.278L477.479 229.216L477.406 228.959L477.265 228.452C477.117 227.877 476.572 226.01 476.406 225.393C472.586 211.785 468.343 197.982 465.878 184.051C464.879 178.41 464.112 172.751 463.462 167.091C463.401 166.32 463.168 164.638 463.113 163.91C462.898 161.664 462.328 159.327 460.047 158.36C455.699 156.8 450.297 155.54 446.349 158.195C444.435 159.339 442.528 162.062 441.1 163.744C436.771 168.914 431.381 174.635 426.758 179.585L423.894 182.687L423.158 183.488C422.852 183.819 422.545 184.106 422.251 184.381L420.657 185.795L419.332 186.97C417.793 186.352 415.69 185.458 414.157 184.84L414.85 182.473C415.298 180.772 415.212 178.569 416.916 177.07C419.21 175.216 421.196 173.038 422.784 170.542C428.358 161.67 428.751 150.517 432.068 140.55C432.197 139.981 432.399 139.473 432.013 139.045C431.197 138.188 429.542 137.589 428.45 137.032C424.084 134.86 419.988 132.156 416.26 129.06C405.094 119.833 397.209 107.23 389.544 95.36L389.434 94.8889L388.827 92.2397L387.907 88.2322C393.763 89.1377 399.662 90.2879 405.174 92.5333C418.069 97.4831 428.511 107.486 435.575 119.148L430.51 120.09C433.877 101.411 443.197 84.6346 452.204 68.2742C452.744 69.657 454.504 74.0744 454.945 75.3164C455.73 78.088 455.62 80.8412 456.227 83.5517C457.257 88.5014 455.614 93.5 455.123 98.1928L450.34 96.0575L470.563 74.0254L471.887 72.5815C472.666 72.8936 474.144 73.5727 474.898 73.8786L477.13 74.8392C475.223 81.2756 473.727 88.2628 471.01 94.6074C464.829 110.258 456.202 125.383 443.706 136.922C441.474 138.935 440.591 142.11 439.818 144.918C438.635 148.883 436.311 158.189 435.219 162.276L434.054 159.26L435.361 160.11L431.994 160.392C435.649 157.173 441.075 151.881 444.644 148.449L457.257 136.334C461.782 131.948 465.486 129.604 465.682 122.758C465.915 120.041 466.565 117.319 467.343 114.737C471.961 100.603 477.32 86.7638 486.438 74.6617C492.753 66.0227 501.178 59.1885 509.082 52.1158C510.37 51.2714 511.731 50.9716 513.019 50.3476L518.457 47.9125L516.796 53.627C512.393 68.9595 504.833 83.1172 499.063 97.7828L494.213 95.2315C506.593 76.7114 524.706 63.3429 544.566 53.7065L542.107 60.4061C541.506 61.8989 541.243 63.4897 540.329 64.9642C538.373 67.9255 533.67 75.3225 531.702 78.4245C526.177 87.0207 520.585 95.8556 513.883 103.675C509.143 108.9 503.349 112.816 497.824 116.933C496.481 117.93 495.163 118.94 493.881 119.962C492.563 121.039 491.404 121.461 490.619 122.58L487.149 118.585L499.645 112.84C501.718 111.873 503.919 110.845 505.906 109.879C507.065 108.704 507.635 106.893 508.591 105.48C518.752 87.6999 537.711 76.95 556.774 71.2355C562.109 69.5958 568.443 68.6842 573.925 67.6869C575.501 67.4727 577.248 66.9282 578.775 66.9098C580.155 66.9833 580.743 67.4421 581.773 67.6379L586.942 68.8616L582.963 72.3796C575.311 79.1526 560.41 92.3131 552.954 98.9086C552.942 98.9209 552.991 98.878 553.01 98.8597C553.071 98.7985 553.138 98.719 553.193 98.6394C553.31 98.4742 553.341 98.3702 553.298 98.4803C553.255 98.5782 553.151 98.823 553.016 99.0555C552.433 100.034 549.416 104.709 548.748 105.786L548.582 105.975L548.539 106.024C548.754 105.718 548.901 105.376 548.969 104.935C548.981 104.874 548.987 104.807 548.987 104.739V104.641C548.975 104.323 548.981 104.024 548.84 103.669C548.435 102.341 546.81 101.503 545.541 101.925C559.086 99.6 578.401 98.2784 593.718 101.05C593.73 101.044 594.3 101.484 594.307 101.484C594.307 101.484 596.827 102.219 596.833 102.225L599.463 103.559C594.748 106.196 589.904 108.918 585.072 111.157C581.485 112.846 577.726 114.474 573.857 116.236L573.888 116.242ZM568.369 116.211C576.169 110.992 584.655 105.437 592.982 100.897C592.982 100.885 591.768 104.409 591.793 104.36L593 102.078C592.994 102.078 593.608 102.525 593.577 102.512C585.741 101.858 577.88 102.121 570.111 103.014C562.336 103.907 554.647 105.412 547.019 107.217L547.816 106.93C545.786 108.123 543.205 106.526 543.548 104.14C543.659 103.387 544.051 102.806 544.499 102.317L544.235 102.665L547.479 97.5626L548.227 96.3879C548.227 96.3879 548.215 96.4185 548.276 96.2777C548.331 96.1554 548.466 95.8189 548.73 95.4457C548.858 95.2621 549.012 95.0908 549.159 94.9378L549.349 94.7604L549.422 94.6992L549.705 94.4484C551.544 92.827 559.184 86.0602 561.103 84.3715L579.339 68.2497L580.529 72.9914C579.848 72.8324 579.161 72.5999 578.726 72.4653C578.524 72.398 578.376 72.3857 578.542 72.4041C578.609 72.4041 578.757 72.4041 578.836 72.3857C572.373 73.6767 564.77 74.6067 558.375 76.5156C540.421 81.9609 522.915 91.6707 513.38 108.27C511.933 110.582 510.977 113.593 508.273 114.865C500.412 118.634 488.884 123.829 480.95 127.5L486.015 119.582C487.063 117.82 489.105 116.664 490.442 115.667C494.409 112.479 498.707 109.554 502.644 106.471C506.58 103.442 509.996 100.138 512.896 96.2104C518.004 89.566 522.541 82.5911 527.072 75.4632C528.74 72.8446 533.615 65.1661 535.307 62.6025L535.657 62.0703L535.749 61.9295L535.786 61.8561C536.141 60.9506 536.564 59.525 536.957 58.4972L540.832 61.8806C532.487 66.2491 524.583 71.4129 517.482 77.5006C505.109 87.3144 494.133 105.29 485.193 118.23C490.221 105.204 497.567 86.3294 503.355 73.9153C506.488 66.7202 509.376 59.4944 511.535 52.079L515.312 55.3585C514.386 55.8051 512.865 56.3068 512.234 56.6494C504.802 63.4713 496.843 69.7365 490.895 77.935C484.071 87.033 479.202 97.4708 475.48 108.202C473.561 113.556 471.452 118.64 471.121 124.287C470.593 131.856 466.215 135.521 461.101 140.299L448.513 152.389C444.301 156.482 438.555 161.988 434.171 165.874C432.791 164.944 430.805 163.702 429.419 162.778C429.542 162.074 432.693 150.333 432.938 149.226C433.454 147.28 433.987 145.328 434.545 143.383C435.115 141.431 435.753 138.984 436.734 137.203C437.74 135.178 439.34 133.391 441.026 131.856C442.43 130.516 443.785 129.127 445.085 127.683C454.988 116.823 461.782 103.479 466.994 89.7862C468.791 85.1791 469.766 80.5659 471.194 75.6162L472.752 78.9079L471.556 78.3939L474.671 77.7209C470.477 82.2729 452.615 101.76 448.801 105.902C449.194 102.206 449.844 95.152 450.586 91.6462C451.058 88.8256 451.327 86.4701 450.702 83.8514C450.162 81.3797 450.334 78.7977 449.537 76.4789L449.243 75.7263L454.246 76.0628C446.398 90.3369 438.892 105.009 435.968 121.057L434.668 128.111C426.85 114.565 418.143 103.467 403.169 97.6177C399.294 96.0881 395.235 95.0051 391.09 94.3076L394.235 90.9793L394.842 93.6285L394.474 92.7536C399.521 100.573 404.463 108.355 410.306 115.269C416.07 122.128 422.901 128.099 430.933 132.064C433.674 133.306 436.906 134.823 437.617 138.158C438.009 139.932 437.623 141.413 437.096 142.997C436.765 144.056 436.464 145.132 436.182 146.222C433.368 157.565 431.878 170.805 422.643 179.352C421.969 179.995 421.258 180.613 420.559 181.188L420.595 181.157C420.804 180.967 420.828 180.851 420.816 180.894C420.773 180.98 420.663 181.426 420.577 181.952C420.485 182.497 420.399 183.139 420.166 183.972L418.572 180.662L419.866 181.194L416.947 181.708C417.523 181.182 418.676 180.215 419.136 179.707C419.492 179.303 422.282 176.299 422.729 175.81C427.328 170.909 432.62 165.268 436.875 160.19L439.604 156.867C445.049 150.425 452.431 150.119 459.979 152.487C465.424 153.796 468.202 157.883 468.613 163.298C468.68 164.093 468.883 165.653 468.956 166.436C469.913 174.788 471.121 183.066 472.96 191.252C475.634 203.122 479.313 215.187 482.587 226.94L482.728 227.448L482.801 227.705L482.82 227.766C482.832 227.803 482.82 227.773 482.789 227.669C482.765 227.607 482.74 227.516 482.648 227.332C482.618 227.259 482.397 226.867 482.09 226.592C480.845 225.325 478.503 225.815 477.841 227.308C478.325 226.035 478.54 224.94 479.533 223.802C481.017 222.107 483.635 222.523 484.715 224.31L479.883 224.726C482.881 217.94 484.8 210.788 484.782 203.373C484.757 193.822 482.335 183.972 480.723 174.507L486.076 178.08C492.956 182.864 500.553 186.676 508.696 189.05C516.826 191.448 525.441 192.378 534.056 192.042L533.842 192.188C533.842 192.188 532.487 189.288 532.487 189.282C532.487 189.282 533.339 192.708 533.333 192.696C533.333 192.611 497.37 166.406 498.364 167.03C496.101 165.647 493.599 164.393 491.318 163.041C491.453 161.162 491.643 158.501 491.772 156.617L494.243 156.525L540.096 154.799L538.52 159.731C536.632 158.391 535.215 156.623 533.18 155.76C532.389 155.423 529.96 154.347 529.127 153.986C522.069 150.933 515.122 147.745 507.586 146.246C496.573 144.013 485.181 146.344 475.462 151.997L474.248 152.707C472.844 153.649 470.98 154.549 469.459 154.836C464.995 155.797 460.746 155.466 456.417 154.322C454.301 153.698 452.155 152.897 450.107 151.177L447.845 149.281C456.006 140.899 465.069 133.104 475.793 128.142C480.766 125.841 486.002 124.661 491.276 123.437C495.004 122.617 497.278 125.646 498.676 128.589C499.884 130.718 501.46 132.688 503.324 134.187C505.305 135.735 507.659 136.665 509.94 137.693C525.772 144.074 542.99 146.173 559 152.126L559.938 152.474L560.196 152.572L560.466 152.707C560.594 152.774 560.717 152.823 560.84 152.872C561.324 153.074 561.759 153.099 562.017 152.995L561.876 153.062C562.133 152.921 562.379 152.744 562.532 152.627C562.471 152.682 562.379 152.848 562.367 152.964C562.348 153.141 562.354 152.988 562.367 152.829C562.385 152.664 562.428 152.511 562.471 152.383L562.612 153.349C560.588 150.725 558.399 148.234 556.026 145.934C551.336 141.382 546.093 137.43 540.709 133.82C532.824 128.417 523.7 124.807 514.177 123.871C503.79 122.458 490.509 125.664 480.208 127.469C483.973 125.113 494.28 118.09 497.99 115.973C505.342 111.696 509.438 111.053 517.341 114.7C524.381 117.6 531.751 119.631 539.256 120.965C550.569 123.027 562.244 123.523 573.784 123.474C577.616 123.474 581.485 123.253 585.446 123.137L582.693 125.358L583.092 123.89L584.477 127.2C578.953 124.092 573.324 119.937 568.382 116.175L568.369 116.211Z" fill="#1E1E1E"/>
<path d="M512.43 110.741C519.297 90.0799 555.407 73.2056 574.801 72.9547C574.801 73.2545 574.924 73.695 574.771 73.8296C563.795 83.8392 552.985 94.0384 541.745 103.748C533.351 110.992 523.712 114.596 512.43 110.741Z" fill="#6A9C89"/>
<path d="M472.249 156.207C476.265 156.825 480.141 156.464 482.961 158.018C493.771 163.977 504.355 170.377 514.803 176.954C520.217 180.368 525.178 184.504 530.549 188.462C513.405 196.483 479.736 178.202 472.249 156.2V156.207Z" fill="#6A9C89"/>
<path d="M559.05 149.929C545.897 146.778 532.714 143.823 519.653 140.391C514.582 139.063 509.738 136.793 504.913 134.682C503.331 133.991 501.577 132.694 500.884 131.213C499.983 129.286 499.351 126.673 499.964 124.801C500.351 123.608 503.288 122.446 504.943 122.605C511.658 123.272 518.623 123.535 524.933 125.633C538.809 130.259 550.631 138.225 559.043 149.923L559.05 149.929Z" fill="#6A9C89"/>
<path d="M510.234 57.9893C506.709 78.0573 484.095 117.441 471.549 125.719C467.76 113.072 492.679 69.0573 510.234 57.9893Z" fill="#6A9C89"/>
<path d="M580.068 124.71C557.492 125.064 535.123 124.092 514.036 114.039C523.454 115.618 531.769 113.103 539.728 108.245C541.525 107.15 544.823 107.162 546.853 108.019C558.203 112.834 569.381 118.065 580.614 123.149C580.436 123.669 580.252 124.189 580.075 124.703L580.068 124.71Z" fill="#6A9C89"/>
<path d="M482.415 225.845C479.073 203.422 466.546 184.033 468.839 161.193C482.881 166.877 490.987 205.22 482.415 225.845Z" fill="#6A9C89"/>
<path d="M534.418 65.5883C522.252 85.0873 512.153 106 490.024 116.811C488.779 105.682 518.543 71.4312 534.418 65.5883Z" fill="#6A9C89"/>
<path d="M434.428 134.358C415.506 126.808 405.652 110.882 394.909 94.9867C414.193 97.1709 434.17 117.086 434.428 134.358Z" fill="#6A9C89"/>
<path d="M474.518 152.499C486.72 141.755 518.973 143.884 533.848 155.876C524.062 156.286 513.81 156.054 503.748 157.326C494.176 158.538 485.297 157.29 476.541 153.772C475.842 153.49 475.235 152.964 474.512 152.499H474.518Z" fill="#6A9C89"/>
<path d="M469.312 83.3865C464.407 101.246 456.767 117.435 443.749 130.767C446.018 122.372 447.845 114.045 450.623 106.049C451.923 102.304 454.804 98.9698 457.453 95.8617C461.169 91.4994 465.339 87.5286 469.312 83.3865Z" fill="#6A9C89"/>
<path d="M437.869 133.734C434.662 115.997 438.831 100.267 451.383 86.8983C448.642 102.965 447.035 119.344 437.869 133.734Z" fill="#6A9C89"/>
<path d="M588.617 104.758C582.73 107.945 576.899 111.261 570.902 114.223C569.664 114.835 567.597 114.571 566.23 113.978C561.545 111.953 557.002 109.609 552.415 106.758C564.261 103.656 576.231 102.861 588.623 104.752L588.617 104.758Z" fill="#6A9C89"/>
<path d="M291.143 270.411C355.824 270.411 408.258 216.585 408.258 150.186C408.258 83.7878 355.824 29.9613 291.143 29.9613C226.462 29.9613 174.027 83.7878 174.027 150.186C174.027 216.585 226.462 270.411 291.143 270.411Z" fill="white"/>
<path d="M411.937 122.96C447.544 136.316 405.806 302.5 291.143 302.5C166.056 302.5 135.839 136.995 167.282 122.96C178.319 190.873 209.591 248.997 291.143 249.609C381.941 250.288 404.579 184.143 411.937 122.96Z" fill="#C9D7D5"/>
<path d="M194.569 110.111C211.67 110.111 225.534 93.4017 225.534 72.7895C225.534 52.1773 211.67 35.4678 194.569 35.4678C177.467 35.4678 163.604 52.1773 163.604 72.7895C163.604 93.4017 177.467 110.111 194.569 110.111Z" fill="white"/>
<path d="M391.702 110.111C405.925 110.111 417.456 94.2235 417.456 74.625C417.456 55.0265 405.925 39.1388 391.702 39.1388C377.479 39.1388 365.949 55.0265 365.949 74.625C365.949 94.2235 377.479 110.111 391.702 110.111Z" fill="white"/>
<path d="M252.492 155.871C266.343 138.433 266.748 115.736 253.396 105.177C240.044 94.6171 217.991 100.193 204.14 117.631C190.288 135.069 189.883 157.766 203.235 168.325C216.587 178.885 238.64 173.309 252.492 155.871Z" fill="#1E1E1E"/>
<path d="M313.831 159.67C313.831 169.459 302.659 178.636 291.143 178.636C279.628 178.636 267.843 171.294 267.843 159.67C267.843 151.716 275.201 151.716 289.304 151.716C302.18 151.716 313.831 150.492 313.831 159.67Z" fill="#1E1E1E"/>
<path d="M247.301 184.449C246.283 200.411 260.717 214.581 276.8 211.449C283.803 210.084 290.192 204.89 293.595 198.723C297.618 191.442 296.6 182.448 296.029 174.439C295.692 169.74 295.042 165.084 293.988 160.489C292.228 152.817 280.4 156.066 282.16 163.744C282.448 164.986 282.736 166.228 282.963 167.489C283.067 168.058 283.153 168.621 283.245 169.19C283.453 170.499 283.122 168.021 283.306 169.6C283.478 171.086 283.631 172.573 283.742 174.066C284.066 178.367 284.146 182.687 284.122 187C284.116 187.967 284.195 188.97 284.06 189.925C284.189 188.995 283.692 191.075 283.588 191.338C282.951 192.947 281.933 194.397 280.743 195.639C280.412 195.982 278.53 197.628 279.357 197.004C278.217 197.86 276.972 198.613 275.666 199.09C272.343 200.307 268.921 199.726 265.978 197.866C261.606 195.107 259.227 189.747 259.564 184.443C259.773 181.139 256.596 178.324 253.432 178.324C249.937 178.324 247.509 181.133 247.301 184.443V184.449Z" fill="#1E1E1E"/>
<path d="M321.813 184.43C322.151 189.704 319.747 195.113 315.4 197.854C312.45 199.714 309.041 200.295 305.711 199.078C304.485 198.631 303.363 197.94 302.272 197.169C301.897 196.9 301.934 196.93 302.394 197.267C302.161 197.071 301.928 196.875 301.701 196.667C301.346 196.318 300.984 195.982 300.64 195.621C299.549 194.483 298.543 193.143 297.918 191.687C297.066 189.686 297.274 189.386 297.256 186.982C297.225 182.668 297.311 178.349 297.636 174.048C297.746 172.555 297.9 171.068 298.071 169.581C298.255 168.003 297.924 170.481 298.133 169.171C298.225 168.602 298.31 168.033 298.415 167.47C298.642 166.216 298.93 164.974 299.218 163.726C300.978 156.06 289.156 152.786 287.39 160.471C286.544 164.167 285.949 167.893 285.581 171.668C285.213 175.443 285.066 179.01 285.011 182.693C284.949 186.945 284.716 191.277 286.249 195.321C288.923 202.375 294.625 207.943 301.671 210.598C309.918 213.7 318.888 211.229 325.345 205.588C331.281 200.399 334.579 192.286 334.083 184.437C333.874 181.139 331.416 178.318 327.951 178.318C324.793 178.318 321.605 181.12 321.819 184.437H321.813V184.43Z" fill="#1E1E1E"/>
<path d="M173.022 123.021C164.247 119.411 156.221 114.106 150.187 106.722C141.817 95.7636 137.617 81.7711 138.659 67.9681C139.677 56.7839 143.976 45.1224 151.487 36.2569C156.349 30.5179 162.493 25.7762 169.355 22.6865C188.78 13.7476 213.644 17.7796 228.409 33.2712C231.15 36.1346 233.499 39.2977 235.283 42.7484L221.303 55.7193C218.868 54.6608 216.55 53.7431 214.263 53.0211C204.974 50.0721 193.753 50.2801 185.316 55.1503C179.006 58.8335 175.713 64.756 173.733 71.7982C172.04 78.2224 172.936 85.2095 174.622 91.6154C175.787 94.8765 177.608 97.7766 179.497 100.719C180.993 102.995 182.691 105.357 184.224 107.603L173.009 123.021H173.022Z" fill="#1E1E1E"/>
<path d="M395.234 106.96C398.84 102.133 402.893 97.2628 405.217 91.6951C407.038 85.7542 407.982 79.2505 406.836 73.1505C405.965 69.4918 404.88 66.4326 403.206 63.4714C401.219 60.0023 398.374 57.1511 394.928 55.181C388.385 51.4733 380.101 50.8187 372.664 52.0974C368.065 52.9662 363.938 54.6182 359.658 56.7534L344.022 42.2408C354.643 24.0878 377.348 15.5466 397.761 19.1503C421.49 23.3107 437.69 42.302 440.977 65.5638C442.988 80.1621 438.917 95.3539 430.222 107.162C426.623 111.849 422.055 115.734 417.198 118.977C414.145 120.996 411.146 122.684 407.78 124.202L395.234 106.954V106.96Z" fill="#1E1E1E"/>
<path d="M421.024 121.381H408.564V158.366H421.024V121.381Z" fill="#1E1E1E"/>
<path d="M220.628 201.274C224.014 201.274 226.76 198.535 226.76 195.156C226.76 191.777 224.014 189.038 220.628 189.038C217.241 189.038 214.496 191.777 214.496 195.156C214.496 198.535 217.241 201.274 220.628 201.274Z" fill="#1E1E1E"/>
<path d="M359.818 201.274C363.205 201.274 365.95 198.535 365.95 195.156C365.95 191.777 363.205 189.038 359.818 189.038C356.432 189.038 353.687 191.777 353.687 195.156C353.687 198.535 356.432 201.274 359.818 201.274Z" fill="#1E1E1E"/>
<path d="M289.917 273.776C355.444 273.776 408.565 219.676 408.565 152.939C408.565 86.2032 355.444 32.1028 289.917 32.1028C224.389 32.1028 171.268 86.2032 171.268 152.939C171.268 219.676 224.389 273.776 289.917 273.776Z" stroke="#1E1E1E" stroke-width="10" stroke-miterlimit="10"/>
<path d="M290.223 299.473C363.37 299.473 422.668 239.62 422.668 165.788C422.668 91.9557 363.37 32.1028 290.223 32.1028C217.076 32.1028 157.778 91.9557 157.778 165.788C157.778 239.62 217.076 299.473 290.223 299.473Z" stroke="#1E1E1E" stroke-width="10" stroke-miterlimit="10"/>
<path d="M377.05 168.053C390.402 157.493 389.997 134.797 376.146 117.359C362.294 99.9209 340.242 94.3448 326.89 104.904C313.538 115.464 313.943 138.16 327.794 155.598C341.646 173.036 363.698 178.612 377.05 168.053Z" fill="#1E1E1E"/>
<path d="M234.731 136.42C239.81 136.42 243.928 132.311 243.928 127.243C243.928 122.174 239.81 118.065 234.731 118.065C229.651 118.065 225.533 122.174 225.533 127.243C225.533 132.311 229.651 136.42 234.731 136.42Z" fill="white"/>
<path d="M345.715 136.42C350.795 136.42 354.913 132.311 354.913 127.243C354.913 122.174 350.795 118.065 345.715 118.065C340.635 118.065 336.518 122.174 336.518 127.243C336.518 132.311 340.635 136.42 345.715 136.42Z" fill="white"/>
<path d="M410.024 161.964C409.822 163.432 409.516 164.882 409.246 166.406C407.449 166.137 405.763 165.935 404.095 165.617C403.414 165.488 403.071 165.617 402.844 166.277C402.237 168.052 401.483 169.783 400.974 171.588C399.65 176.262 399.472 180.961 401.029 185.642C402.538 190.163 405.371 193.761 408.909 196.863C409.172 197.095 409.442 197.328 409.902 197.732C405.291 198.166 401.072 199.145 396.927 200.803C396.614 201.011 396.283 201.207 395.94 201.403C394.873 202.027 393.91 202.798 392.984 203.611C391.936 204.529 390.955 205.532 390.133 206.664C389.851 207.05 389.594 207.447 389.299 207.802C389.263 207.98 389.201 208.163 389.103 208.371C388.269 210.201 387.558 212.085 386.84 213.963C386.601 214.594 386.497 215.279 386.332 215.952C386.209 215.921 386.276 215.952 386.319 215.964L380.494 222.786C373.909 230.795 373.014 239.52 377.109 248.997C359.462 240.578 348.45 249.003 343.281 261.154C345.335 262.983 347.408 264.831 349.554 266.74C347.365 268.349 345.249 269.903 343.048 271.525C351.804 283.009 362.479 288.797 377.189 283.608C376.938 284.159 376.742 284.599 376.533 285.028C373.706 290.883 373.246 296.971 374.853 303.217C376.177 308.345 378.765 312.848 382.027 316.984C382.922 318.122 383.848 319.241 384.811 320.428C386.246 319.156 387.589 317.956 388.98 316.721C389.778 318.421 390.526 320.012 391.341 321.756C401.808 316.996 407.946 309.476 407.486 297.393C417.885 310.205 430.351 309.317 438.065 306.228C437.206 303.432 436.354 300.629 435.477 297.778C437.881 297.13 440.119 296.524 442.412 295.906C440.965 290.638 438.672 285.927 435.385 281.705C432.019 277.368 427.855 274.094 422.435 272.277C422.827 272.1 423.06 271.971 423.306 271.892C425.084 271.298 430.897 268.814 432.644 268.135L439.107 263.785C441.983 261.246 444.129 258.229 445.717 254.76C447.526 255.482 449.231 256.161 451.015 256.871C451.64 255.121 452.241 253.445 452.873 251.683C453.682 252.264 454.387 252.772 455.093 253.274C455.822 253.794 456.546 254.314 457.398 254.919C464.333 245.669 466.062 236.13 459.881 225.839C474.058 231.945 485.334 226.206 490.987 219.054C488.903 217.023 486.812 214.985 484.678 212.905C486.456 211.222 488.191 209.589 489.964 207.919C481.839 200.13 472.764 195.082 461.175 196.606C463.113 194.367 465.136 192.286 466.859 189.98C471.746 183.451 474.211 176.226 472.813 167.966C472.641 166.932 472.292 166.418 471.133 166.29C468.834 166.033 466.559 165.568 464.241 165.176C464.64 163.194 465.026 161.297 465.418 159.351C465.02 159.278 464.682 159.198 464.345 159.162C460.55 158.715 456.779 158.758 453.026 159.651C448.452 160.74 444.368 162.68 441.131 166.167C437.605 169.967 435.955 174.586 435.152 179.591C434.987 180.613 434.698 181.616 434.416 182.846C432.828 180.031 431.387 177.449 429.922 174.892C427.279 170.285 424.097 166.13 419.664 163.077C417.223 161.395 414.593 160.385 411.545 160.569C410.521 160.63 410.165 161.046 410.037 161.988L410.024 161.964ZM346.561 271.892C348.781 270.252 351.007 268.612 353.337 266.893C350.884 264.703 348.53 262.598 346.138 260.463C349.118 254.926 352.852 250.184 359.315 248.477C363.319 247.418 367.274 247.975 371.162 249.168C374.461 250.184 377.447 251.83 380.249 253.824C381.377 254.626 382.518 255.409 383.824 256.051C383.713 255.831 383.609 255.605 383.499 255.384C381.819 252.191 379.814 249.125 378.514 245.785C375.129 237.091 377.643 227.987 384.768 221.868C386.54 220.351 386.558 220.326 388.355 221.77C389.44 222.645 390.452 223.6 391.494 224.518C391.703 224.499 391.905 224.481 392.114 224.462C393.125 223.043 394.174 221.648 395.137 220.198C395.646 219.427 396.056 219.494 396.719 220.014C399.104 221.887 400.349 224.469 401.293 227.228C402.593 231.015 403.157 234.955 403.188 238.932C403.224 242.989 403.01 247.051 402.899 251.114C402.899 251.212 402.844 251.31 402.838 251.328C402.041 251.053 401.268 250.637 400.471 250.557C399.331 250.441 398.478 251.071 397.994 252.13C397.491 253.237 397.645 254.314 398.515 255.109C399.312 255.837 399.643 256.694 399.674 257.691C399.742 259.698 399.797 261.711 399.766 263.718C399.766 264.146 399.472 264.831 399.153 264.941C398.344 265.223 397.369 265.37 396.878 264.336C396.124 262.739 395.413 261.117 394.732 259.484C394.248 258.321 394.033 257.226 394.738 255.935C395.492 254.558 394.573 252.87 393.132 252.405C391.605 251.909 390.121 252.65 389.618 254.155C389.121 255.629 389.912 257.183 391.476 257.587C392.243 257.783 392.451 258.223 392.709 258.896C393.61 261.221 394.64 263.497 395.627 265.786C395.695 265.939 395.774 266.085 395.964 266.471C395.143 266.471 394.444 266.599 393.831 266.434C391.715 265.877 389.606 265.266 387.54 264.544C387.098 264.391 386.693 263.736 386.54 263.234C386.086 261.754 384.694 260.995 383.057 261.46C381.635 261.864 380.899 263.344 381.34 264.892C381.739 266.281 383.407 267.327 384.609 266.642C385.951 265.877 386.957 266.324 388.196 266.752C390.323 267.486 392.531 267.988 394.855 268.631C395.345 269.971 395.247 270.46 393.984 271.451C391.948 273.048 389.557 273.776 387.018 274.002C386.607 274.039 386.105 273.617 385.725 273.305C384.566 272.344 383.076 272.302 382.003 273.262C381.034 274.119 380.813 275.722 381.573 276.78C381.849 277.166 382.254 277.453 382.597 277.784C371.499 285.884 356.838 285.413 346.555 271.898L346.561 271.892ZM426.519 228.164L427.328 234.949C417.462 234.313 411.269 240.113 405.916 247.369C405.843 247.284 405.769 247.198 405.702 247.119C405.689 244.017 405.677 240.915 405.665 237.666C414.096 237.862 420.994 234.674 426.525 228.17L426.519 228.164ZM429.646 267.046C425.55 268.998 421.154 269.934 416.714 270.692C414.501 271.072 414.482 271.047 414.893 273.342C428.223 274.143 434.901 282.782 439.475 294.175C437.035 294.835 434.766 295.441 432.411 296.077C433.307 298.965 434.177 301.773 435.134 304.875C433.368 305.157 431.645 305.561 429.91 305.689C419.976 306.43 413.176 301.376 407.878 293.648C407.308 292.822 406.793 291.935 406.401 291.011C406.039 290.167 405.61 289.996 404.831 290.436C404.506 290.626 404.138 290.73 403.69 290.913C405.389 296.934 405.892 302.911 402.887 308.693C400.582 313.123 396.946 316.164 392.518 318.519C391.599 316.623 390.691 314.763 389.729 312.774C388.128 314.2 386.607 315.552 385.038 316.947C381.261 312.291 378.244 307.366 376.895 301.523C375.583 295.839 376.282 290.406 379.016 285.34C380.218 283.107 382.082 281.228 383.677 279.215C385.449 276.976 387.558 275.434 390.575 275.055C392.721 274.786 394.517 273.403 396.167 271.928C395.149 274.504 393.959 276.945 391.746 278.695C391.421 278.952 390.844 278.977 390.391 278.958C389.109 278.903 387.938 279.595 387.497 280.769C387.061 281.938 387.509 283.308 388.551 283.994C389.612 284.691 390.973 284.599 391.948 283.755C392.666 283.131 392.843 282.342 392.776 281.4C392.739 280.904 392.862 280.206 393.187 279.907C394.928 278.322 396.124 276.382 397.179 274.321C397.264 274.149 397.381 273.99 397.497 273.813L398.632 283.29C397.062 283.547 396.007 284.208 395.762 285.75C395.59 286.833 396.118 287.94 397.093 288.485C398.147 289.078 399.404 288.95 400.306 288.16C401.14 287.432 401.612 286.104 401.06 285.23C400.079 283.682 400.201 281.962 399.993 280.292C399.723 278.157 399.478 276.015 399.22 273.874C399.355 273.819 399.49 273.758 399.631 273.703C400.042 274.162 400.49 274.59 400.851 275.079C402.164 276.884 403.427 278.72 404.745 280.518C405.223 281.167 405.364 281.699 404.966 282.495C404.334 283.761 404.825 285.119 405.99 285.872C407.112 286.6 408.584 286.386 409.503 285.37C410.441 284.33 410.527 282.954 409.614 281.852C409.276 281.448 408.749 281.032 408.265 280.971C407.222 280.849 406.726 280.225 406.192 279.448C404.475 276.964 402.685 274.529 400.919 272.069C401.501 271.194 402.121 271.127 403.059 271.739C405.137 273.085 407.284 274.321 409.43 275.563C410.024 275.905 410.233 276.297 410.165 276.988C410.006 278.683 411.331 280.035 413.017 279.998C414.458 279.968 415.709 278.591 415.617 277.135C415.506 275.379 414.182 274.363 412.397 274.535C411.803 274.59 411.085 274.449 410.564 274.143C408.455 272.92 406.401 271.598 404.193 270.227C404.555 270.154 404.788 270.099 405.033 270.062C406.615 269.805 408.191 269.512 409.779 269.316C410.3 269.255 410.895 269.346 411.386 269.536C412.955 270.148 414.58 269.487 415.132 267.933C415.653 266.471 414.777 264.819 413.25 264.384C411.692 263.944 410.202 264.831 409.89 266.477C409.742 267.254 409.362 267.694 408.639 267.792C406.977 268.013 405.315 268.208 403.641 268.331C403.273 268.355 402.881 268.019 402.501 267.847C402.691 267.474 402.814 267.046 403.077 266.746C404.469 265.155 405.886 263.583 407.333 262.041C407.658 261.699 408.105 261.362 408.553 261.258C409.73 260.983 410.73 260.083 410.883 259.006C411.048 257.807 410.46 256.633 409.43 256.106C408.387 255.574 407.057 255.764 406.223 256.565C405.364 257.385 405.107 258.633 405.695 259.722C406.051 260.371 406.002 260.866 405.591 261.448C404.457 263.045 403.231 264.525 401.317 265.633C402.047 262.531 401.593 259.606 401.354 256.675C401.324 256.321 401.569 255.776 401.857 255.605C402.85 255.017 403.212 254.191 403.237 253.09C403.249 252.735 403.421 252.24 403.69 252.056C406.56 250.11 408.786 247.522 410.975 244.892C413.36 242.034 416.138 239.691 419.682 238.424C424.403 236.736 429.149 236.895 433.803 238.645C436.109 239.514 438.304 240.67 440.744 241.79C439.365 243.429 438.144 244.879 436.869 246.391C438.856 247.945 440.757 249.468 442.688 250.943C444.178 252.081 444.19 252.05 443.473 253.72C440.726 260.089 435.722 264.14 429.634 267.04L429.646 267.046ZM437.881 177.976C439.622 169.092 445.429 163.389 454.314 161.811C456.129 161.487 457.981 161.358 459.82 161.211C460.679 161.144 461.549 161.26 462.579 161.297C462.181 163.285 461.813 165.115 461.414 167.079C463.591 167.446 465.706 167.807 467.828 168.15C470.851 168.639 470.777 168.645 470.839 171.753C470.955 177.596 468.938 182.723 465.749 187.483C463.021 191.558 459.501 194.868 455.62 197.823C455.178 198.16 454.737 198.509 454.302 198.851C453.553 199.426 454.075 199.934 454.369 200.479C454.657 201.011 454.921 201.225 455.583 200.913C463.836 197.028 471.752 198.325 479.356 202.706C481.87 204.156 484.163 205.991 486.665 207.723C484.709 209.57 482.998 211.186 481.238 212.85C483.458 215.016 485.622 217.121 487.799 219.244C483.605 223.012 478.982 225.717 473.279 226.059C468.503 226.347 464.002 225.264 459.777 223.037C458.514 222.37 457.214 221.752 456.018 220.969C455.111 220.375 454.535 220.516 453.983 221.367C453.854 221.562 453.609 221.679 453.431 221.813C464.664 232.728 461.96 244.524 456.779 251.536C455.129 250.349 453.474 249.156 451.671 247.865C450.954 249.878 450.279 251.787 449.574 253.769C448.581 253.347 447.63 252.937 446.618 252.503C447.023 251.444 446.514 250.802 445.729 250.19C443.97 248.819 442.265 247.382 440.481 245.926C441.744 244.414 442.958 242.952 444.203 241.453C440.168 238.516 435.906 236.283 431.038 235.384C430.314 235.249 429.995 234.986 429.818 234.246C428.732 229.804 428.849 225.429 430.277 221.079C430.664 219.892 430.921 218.662 431.314 217.469C431.455 217.029 431.712 216.539 432.068 216.27C434.533 214.398 436.581 212.22 437.605 209.228C437.648 209.093 437.654 208.946 437.813 208.891C438.114 211.534 438.31 214.104 437.323 216.545C437.096 217.102 436.464 217.573 435.906 217.91C434.735 218.619 434.208 219.739 434.564 221.11C434.87 222.272 435.906 223.068 437.102 223.043C438.445 223.019 439.61 222.229 439.714 220.963C439.782 220.174 439.493 219.262 439.089 218.564C438.813 218.093 438.684 217.818 438.886 217.304C439.751 215.095 439.831 212.758 439.855 210.427C439.855 210.305 439.867 210.176 439.874 210.054C439.978 209.999 440.082 209.944 440.186 209.889C441.811 212.379 443.455 214.857 445.03 217.377C445.147 217.561 444.84 218.093 444.613 218.381C443.939 219.244 443.657 220.149 444.086 221.195C444.491 222.18 445.22 222.762 446.275 222.908C447.489 223.08 448.74 222.309 449.169 221.134C449.592 219.984 449.126 218.754 448.158 217.983C447.416 217.39 446.698 216.711 446.159 215.934C444.546 213.621 443.031 211.241 441.315 208.647C442.191 208.94 442.878 209.087 443.497 209.387C445.699 210.439 447.9 211.504 450.046 212.66C450.371 212.832 450.518 213.492 450.586 213.951C450.849 215.744 452.395 216.796 454.05 216.246C455.577 215.744 456.294 214.373 455.822 212.874C455.381 211.467 453.927 210.623 452.511 211.118C451.757 211.382 451.193 211.247 450.543 210.929C447.734 209.54 444.914 208.176 442.038 206.768C442.106 205.74 442.381 205.441 443.504 205.465C446.011 205.514 448.519 205.612 451.027 205.661C451.806 205.679 452.266 205.955 452.609 206.713C453.296 208.243 454.976 208.72 456.386 207.9C457.705 207.135 458.115 205.379 457.275 204.07C456.429 202.749 454.676 202.461 453.363 203.495C452.48 204.186 451.524 203.978 450.561 203.942C448.335 203.862 446.116 203.789 443.97 203.721C445.607 202.375 447.238 201.011 448.912 199.689C449.151 199.5 449.556 199.5 449.887 199.469C451.591 199.322 452.793 197.94 452.548 196.379C452.303 194.801 450.69 193.791 449.09 194.207C447.514 194.617 446.735 196.202 447.36 197.848C447.581 198.435 447.52 198.784 446.986 199.151C445.49 200.167 444.049 201.268 442.541 202.265C442.259 202.449 441.689 202.406 441.357 202.247C440.836 201.99 441.118 201.543 441.241 201.091C441.781 199.157 442.204 197.193 442.756 195.266C442.946 194.611 443.264 193.914 443.724 193.424C444.81 192.28 444.92 190.555 443.841 189.49C442.743 188.407 440.824 188.487 439.812 189.649C438.813 190.806 438.978 192.611 440.284 193.51C441.045 194.036 441.259 194.611 441.045 195.456C440.671 196.893 440.333 198.35 439.935 199.781C439.831 200.161 439.555 200.485 439.242 201.042C438.433 197.615 436.532 195.052 434.515 192.415C435.471 191.32 435.655 190.133 434.864 188.811C434.686 188.511 434.809 187.893 434.999 187.526C436.532 184.51 437.225 181.255 437.869 177.969L437.881 177.976ZM417.37 164.399C420.405 166.173 422.717 168.737 424.863 171.46C427.947 175.369 430.149 179.793 432.289 184.247C432.847 185.403 433.399 186.56 433.999 187.82C433.454 187.789 432.994 187.722 432.534 187.74C431.062 187.802 430.186 188.64 429.983 190.126C429.818 191.356 430.56 192.604 431.841 192.898C432.785 193.112 433.399 193.596 433.852 194.373C434.968 196.288 436.09 198.203 437.157 200.148C437.323 200.448 437.329 201.17 437.194 201.237C436.52 201.549 435.968 202.657 435.115 202.014C433.061 200.473 431.081 198.833 429.137 197.15C428.867 196.918 428.965 196.233 428.935 195.755C428.843 194.452 428.076 193.498 426.85 193.198C425.752 192.929 424.471 193.485 423.888 194.483C423.324 195.449 423.465 196.838 424.244 197.689C424.974 198.484 425.875 198.643 426.923 198.454C427.31 198.38 427.898 198.423 428.131 198.668C430.087 200.687 432.197 202.485 434.674 203.838C434.754 203.88 434.803 203.991 435.066 204.315C433.705 204.835 432.466 205.428 431.167 205.771C429.756 206.144 428.291 206.358 426.831 206.493C426.335 206.542 425.679 206.285 425.299 205.948C424.195 204.957 422.84 204.743 421.687 205.532C420.614 206.273 420.252 207.784 420.871 208.977C421.528 210.244 422.846 210.782 424.244 210.25C424.698 210.078 425.188 209.717 425.427 209.314C425.863 208.555 426.451 208.267 427.285 208.194C429.903 207.974 432.454 207.447 434.846 206.34C436.127 207.466 436.274 208.029 435.643 209.528C434.662 211.865 432.902 213.541 430.903 214.985C430.547 215.242 429.854 215.297 429.425 215.144C427.733 214.557 426.31 215.652 425.961 217.084C425.562 218.681 426.549 220.002 428.346 220.357C428.505 220.388 428.659 220.455 428.824 220.51C422.582 232.092 413.599 235.891 405.622 235.151C404.819 231.847 404.242 228.654 403.249 225.594C402.078 221.972 400.048 218.864 396.486 217.053C395.155 216.374 395.1 216.423 394.156 217.549C393.217 218.668 392.212 219.733 391.065 221.006C390.814 220.767 390.378 220.161 389.79 219.837C388.533 219.14 388.392 218.179 388.613 216.87C390.121 207.894 395.86 202.247 404.874 200.742C409.233 200.014 413.544 200.118 417.867 200.846C418.376 200.931 418.891 200.974 419.504 200.821C419.24 200.668 418.965 200.522 418.707 200.356C416.058 198.68 413.262 197.187 410.785 195.284C403.181 189.441 400.514 180.484 403.433 171.3C403.77 170.248 404.187 169.214 404.586 168.119C406.787 168.443 408.909 168.755 411.134 169.079C411.527 167.018 411.907 164.986 412.305 162.894C414.194 162.863 415.825 163.506 417.364 164.405L417.37 164.399Z" fill="#1E1E1E" stroke="#1E1E1E" stroke-width="12" stroke-miterlimit="10"/>
<path d="M399.637 273.709C400.048 274.168 400.495 274.596 400.857 275.085C402.169 276.89 403.432 278.726 404.751 280.525C405.229 281.173 405.37 281.705 404.972 282.501C404.34 283.767 404.83 285.126 405.996 285.878C407.118 286.606 408.589 286.392 409.509 285.376C410.447 284.336 410.533 282.96 409.619 281.858C409.282 281.455 408.755 281.039 408.27 280.977C407.228 280.855 406.731 280.231 406.198 279.454C404.481 276.97 402.691 274.535 400.925 272.075C401.507 271.2 402.126 271.133 403.065 271.745C405.143 273.091 407.289 274.327 409.435 275.569C410.03 275.911 410.239 276.303 410.171 276.994C410.012 278.689 411.336 280.041 413.022 280.005C414.463 279.974 415.714 278.597 415.622 277.141C415.512 275.385 414.187 274.37 412.403 274.541C411.808 274.596 411.091 274.455 410.57 274.149C408.46 272.926 406.406 271.604 404.199 270.234C404.561 270.16 404.794 270.105 405.039 270.068C406.621 269.811 408.197 269.518 409.785 269.322C410.306 269.261 410.901 269.353 411.391 269.542C412.961 270.154 414.586 269.493 415.138 267.939C415.659 266.477 414.782 264.825 413.255 264.391C411.698 263.95 410.208 264.837 409.895 266.483C409.748 267.26 409.368 267.701 408.644 267.798C406.983 268.019 405.321 268.215 403.647 268.337C403.279 268.361 402.887 268.025 402.507 267.854C402.697 267.48 402.819 267.052 403.083 266.752C404.475 265.162 405.891 263.589 407.338 262.047C407.663 261.705 408.111 261.368 408.559 261.264C409.736 260.989 410.735 260.089 410.889 259.013C411.054 257.813 410.466 256.639 409.435 256.113C408.393 255.58 407.062 255.77 406.229 256.571C405.37 257.391 405.113 258.639 405.701 259.728C406.057 260.377 406.008 260.873 405.597 261.454C404.463 263.051 403.236 264.531 401.323 265.639C402.053 262.537 401.599 259.612 401.36 256.682C401.329 256.327 401.575 255.782 401.863 255.611C402.856 255.023 403.218 254.197 403.242 253.096C403.255 252.741 403.426 252.246 403.696 252.062C406.566 250.117 408.792 247.529 410.981 244.898C413.366 242.04 416.143 239.697 419.688 238.431C424.409 236.742 429.155 236.901 433.809 238.651C436.114 239.52 438.31 240.676 440.75 241.796C439.37 243.435 438.15 244.885 436.875 246.397C438.861 247.951 440.762 249.474 442.694 250.949C444.184 252.087 444.196 252.056 443.479 253.726C440.732 260.096 435.728 264.146 429.639 267.046C425.543 268.998 421.147 269.934 416.708 270.692C414.494 271.072 414.476 271.047 414.886 273.342C428.217 274.143 434.894 282.782 439.468 294.175C437.028 294.829 434.759 295.441 432.405 296.077C433.3 298.965 434.171 301.773 435.127 304.875C433.361 305.157 431.638 305.561 429.903 305.689C419.97 306.43 413.17 301.376 407.872 293.648C407.302 292.822 406.787 291.935 406.394 291.011C406.032 290.167 405.603 289.996 404.824 290.436C404.499 290.626 404.131 290.73 403.684 290.913C405.382 296.934 405.885 302.911 402.881 308.693C400.575 313.123 396.939 316.164 392.512 318.519C391.592 316.623 390.685 314.763 389.722 312.774C388.122 314.2 386.601 315.552 385.031 316.947C381.254 312.291 378.237 307.366 376.888 301.523C375.576 295.839 376.275 290.406 379.01 285.34C380.212 283.107 382.076 281.228 383.67 279.215C385.442 276.976 387.551 275.434 390.568 275.055C392.714 274.786 394.511 273.403 396.16 271.928C395.142 274.504 393.953 276.945 391.739 278.695C391.414 278.952 390.838 278.977 390.384 278.958C389.103 278.903 387.932 279.595 387.49 280.769C387.055 281.938 387.502 283.308 388.545 283.994C389.605 284.691 390.967 284.599 391.942 283.755C392.659 283.131 392.837 282.342 392.769 281.4C392.733 280.904 392.855 280.206 393.18 279.907C394.922 278.322 396.117 276.382 397.172 274.321C397.258 274.149 397.374 273.99 397.491 273.813C397.871 276.994 398.245 280.115 398.625 283.29C397.056 283.547 396.001 284.208 395.756 285.75C395.584 286.833 396.111 287.94 397.086 288.485C398.141 289.078 399.398 288.95 400.299 288.16C401.133 287.432 401.605 286.104 401.053 285.23C400.072 283.682 400.201 281.962 399.986 280.292C399.717 278.157 399.471 276.015 399.214 273.874L399.625 273.703L399.637 273.709Z" fill="#F9C0CC"/>
<path d="M462.586 161.297C462.187 163.285 461.819 165.115 461.421 167.079C463.597 167.446 465.713 167.807 467.834 168.15C470.857 168.639 470.784 168.645 470.845 171.753C470.961 177.596 468.944 182.723 465.756 187.483C463.027 191.558 459.507 194.868 455.626 197.823C455.185 198.16 454.743 198.509 454.308 198.851C453.56 199.426 454.081 199.934 454.375 200.479C454.663 201.011 454.927 201.225 455.589 200.913C463.843 197.028 471.759 198.325 479.362 202.706C481.876 204.156 484.169 205.991 486.671 207.723C484.715 209.571 483.004 211.186 481.244 212.85C483.464 215.016 485.628 217.121 487.805 219.244C483.611 223.012 478.988 225.717 473.285 226.059C468.509 226.347 464.008 225.264 459.783 223.037C458.52 222.37 457.22 221.752 456.025 220.969C455.117 220.375 454.541 220.516 453.989 221.367C453.86 221.562 453.615 221.679 453.437 221.813C464.67 232.728 461.966 244.524 456.785 251.536C455.136 250.349 453.48 249.156 451.677 247.865C450.96 249.878 450.285 251.787 449.58 253.769C448.587 253.347 447.636 252.937 446.625 252.503C447.029 251.444 446.52 250.802 445.736 250.19C443.976 248.82 442.271 247.382 440.487 245.926C441.75 244.414 442.964 242.952 444.209 241.453C440.174 238.516 435.913 236.283 431.044 235.384C430.321 235.249 430.002 234.986 429.824 234.246C428.739 229.804 428.855 225.429 430.284 221.079C430.67 219.892 430.928 218.662 431.32 217.469C431.461 217.029 431.719 216.545 432.074 216.27C434.539 214.398 436.587 212.22 437.611 209.228C437.654 209.093 437.66 208.946 437.82 208.891C438.12 211.535 438.316 214.104 437.329 216.545C437.102 217.102 436.471 217.573 435.913 217.91C434.741 218.62 434.214 219.739 434.57 221.11C434.876 222.272 435.913 223.068 437.108 223.043C438.451 223.019 439.616 222.229 439.72 220.963C439.788 220.174 439.5 219.262 439.095 218.564C438.819 218.093 438.69 217.818 438.893 217.304C439.757 215.095 439.837 212.758 439.861 210.427C439.861 210.305 439.874 210.176 439.88 210.054C439.984 209.999 440.088 209.944 440.193 209.889C441.817 212.379 443.461 214.857 445.037 217.377C445.153 217.561 444.847 218.093 444.62 218.381C443.945 219.244 443.663 220.149 444.092 221.195C444.497 222.18 445.227 222.762 446.281 222.908C447.495 223.08 448.746 222.309 449.176 221.134C449.599 219.984 449.133 218.754 448.164 217.983C447.422 217.39 446.704 216.711 446.165 215.934C444.552 213.621 443.038 211.241 441.321 208.647C442.198 208.94 442.884 209.087 443.504 209.387C445.705 210.439 447.906 211.504 450.052 212.66C450.377 212.832 450.525 213.492 450.592 213.951C450.856 215.744 452.401 216.796 454.056 216.246C455.583 215.744 456.301 214.373 455.828 212.874C455.387 211.467 453.934 210.623 452.517 211.118C451.763 211.382 451.199 211.247 450.549 210.929C447.741 209.54 444.92 208.176 442.044 206.768C442.112 205.74 442.388 205.441 443.51 205.465C446.018 205.514 448.526 205.612 451.033 205.661C451.812 205.679 452.272 205.955 452.615 206.713C453.302 208.243 454.982 208.72 456.393 207.9C457.711 207.135 458.122 205.379 457.282 204.07C456.435 202.749 454.682 202.461 453.37 203.495C452.487 204.186 451.53 203.978 450.567 203.942C448.342 203.862 446.122 203.789 443.976 203.721C445.613 202.375 447.244 201.011 448.918 199.689C449.157 199.5 449.562 199.5 449.893 199.469C451.598 199.322 452.799 197.94 452.554 196.379C452.309 194.801 450.696 193.791 449.096 194.207C447.52 194.617 446.741 196.202 447.367 197.848C447.587 198.435 447.526 198.784 446.993 199.151C445.496 200.167 444.056 201.268 442.547 202.265C442.265 202.449 441.695 202.406 441.364 202.247C440.843 201.99 441.125 201.543 441.247 201.091C441.787 199.157 442.21 197.193 442.762 195.266C442.952 194.611 443.271 193.914 443.731 193.424C444.816 192.28 444.926 190.555 443.847 189.49C442.75 188.407 440.83 188.487 439.819 189.649C438.819 190.806 438.985 192.611 440.291 193.51C441.051 194.036 441.266 194.611 441.051 195.456C440.677 196.893 440.34 198.35 439.941 199.781C439.837 200.161 439.561 200.485 439.248 201.042C438.439 197.615 436.538 195.052 434.521 192.415C435.477 191.32 435.661 190.133 434.87 188.811C434.692 188.511 434.815 187.893 435.005 187.526C436.538 184.51 437.231 181.255 437.875 177.969C439.616 169.086 445.423 163.383 454.308 161.805C456.123 161.481 457.975 161.352 459.814 161.205C460.672 161.138 461.543 161.254 462.573 161.291L462.586 161.297Z" fill="#F9C0CC"/>
<path d="M392.113 224.456C393.125 223.037 394.174 221.642 395.136 220.192C395.645 219.421 396.056 219.488 396.718 220.008C399.104 221.881 400.348 224.462 401.293 227.222C402.593 231.009 403.157 234.949 403.187 238.926C403.224 242.983 403.01 247.045 402.899 251.108C402.899 251.206 402.844 251.304 402.838 251.322C402.041 251.047 401.268 250.631 400.471 250.551C399.331 250.435 398.478 251.065 397.994 252.123C397.491 253.231 397.644 254.308 398.515 255.103C399.312 255.831 399.643 256.688 399.674 257.685C399.741 259.692 399.797 261.705 399.766 263.711C399.766 264.14 399.472 264.825 399.153 264.935C398.343 265.217 397.368 265.363 396.878 264.329C396.124 262.733 395.412 261.111 394.732 259.478C394.247 258.315 394.033 257.22 394.738 255.929C395.492 254.552 394.572 252.864 393.131 252.399C391.605 251.903 390.121 252.643 389.618 254.149C389.121 255.623 389.912 257.177 391.476 257.581C392.242 257.777 392.451 258.217 392.708 258.89C393.61 261.215 394.64 263.491 395.627 265.779C395.694 265.932 395.774 266.079 395.964 266.465C395.143 266.465 394.444 266.593 393.83 266.428C391.715 265.871 389.606 265.259 387.539 264.537C387.098 264.385 386.693 263.73 386.54 263.228C386.086 261.748 384.694 260.989 383.057 261.454C381.634 261.858 380.899 263.338 381.34 264.886C381.739 266.275 383.406 267.321 384.608 266.636C385.951 265.871 386.957 266.318 388.195 266.746C390.323 267.48 392.53 267.982 394.854 268.624C395.345 269.964 395.247 270.454 393.984 271.445C391.948 273.042 389.557 273.77 387.018 273.996C386.607 274.033 386.104 273.611 385.724 273.299C384.565 272.338 383.075 272.295 382.002 273.256C381.034 274.113 380.813 275.716 381.573 276.774C381.849 277.16 382.254 277.447 382.597 277.777C371.499 285.878 356.838 285.407 346.555 271.892C348.775 270.252 351 268.612 353.33 266.893C350.878 264.703 348.523 262.598 346.132 260.463C349.112 254.926 352.846 250.184 359.309 248.477C363.313 247.418 367.268 247.975 371.155 249.168C374.454 250.184 377.44 251.83 380.243 253.824C381.371 254.626 382.511 255.409 383.817 256.051C383.707 255.831 383.603 255.605 383.492 255.384C381.812 252.191 379.807 249.125 378.507 245.785C375.123 237.091 377.637 227.987 384.762 221.868C386.534 220.351 386.552 220.327 388.349 221.77C389.434 222.645 390.446 223.6 391.488 224.518C391.697 224.499 391.899 224.481 392.107 224.463L392.113 224.456Z" fill="#F9C0CC"/>
<path d="M405.622 235.145C404.818 231.841 404.242 228.647 403.249 225.588C402.078 221.966 400.048 218.858 396.485 217.047C395.155 216.368 395.1 216.417 394.155 217.543C393.217 218.662 392.212 219.727 391.065 221C390.814 220.761 390.378 220.155 389.79 219.831C388.533 219.133 388.392 218.173 388.612 216.864C390.121 207.888 395.86 202.241 404.874 200.736C409.233 200.008 413.544 200.112 417.867 200.84C418.376 200.925 418.891 200.968 419.504 200.815C419.24 200.662 418.964 200.515 418.707 200.35C416.058 198.674 413.262 197.181 410.785 195.278C403.181 189.435 400.514 180.478 403.433 171.294C403.77 170.242 404.187 169.208 404.585 168.113C406.787 168.437 408.908 168.749 411.134 169.073C411.527 167.012 411.907 164.98 412.305 162.888C414.194 162.857 415.825 163.5 417.364 164.399C420.399 166.173 422.711 168.737 424.857 171.46C427.941 175.369 430.142 179.793 432.282 184.247C432.84 185.403 433.392 186.56 433.993 187.82C433.447 187.789 432.988 187.722 432.528 187.74C431.056 187.802 430.179 188.64 429.977 190.126C429.811 191.356 430.553 192.604 431.835 192.898C432.779 193.112 433.392 193.596 433.846 194.373C434.962 196.288 436.084 198.203 437.151 200.148C437.317 200.448 437.323 201.17 437.188 201.237C436.513 201.549 435.961 202.657 435.109 202.014C433.055 200.473 431.074 198.833 429.131 197.15C428.861 196.918 428.959 196.233 428.928 195.755C428.836 194.452 428.07 193.498 426.844 193.198C425.746 192.929 424.464 193.485 423.882 194.483C423.318 195.449 423.459 196.838 424.238 197.689C424.967 198.484 425.869 198.643 426.917 198.454C427.303 198.38 427.892 198.423 428.125 198.668C430.081 200.687 432.19 202.485 434.668 203.838C434.747 203.88 434.796 203.991 435.06 204.315C433.699 204.835 432.46 205.428 431.16 205.771C429.75 206.144 428.285 206.358 426.825 206.493C426.329 206.542 425.672 206.285 425.292 205.948C424.189 204.957 422.833 204.743 421.681 205.532C420.608 206.273 420.246 207.784 420.865 208.977C421.521 210.244 422.84 210.782 424.238 210.25C424.691 210.078 425.182 209.717 425.421 209.314C425.856 208.555 426.445 208.267 427.279 208.194C429.897 207.974 432.448 207.447 434.839 206.34C436.121 207.466 436.268 208.029 435.636 209.528C434.655 211.865 432.896 213.541 430.897 214.985C430.541 215.242 429.848 215.297 429.419 215.144C427.727 214.557 426.304 215.652 425.954 217.084C425.556 218.681 426.543 220.002 428.34 220.357C428.499 220.388 428.652 220.455 428.818 220.51C422.576 232.092 413.593 235.891 405.616 235.151L405.622 235.145Z" fill="#F8BFCB"/>
</g>
<defs>
<clipPath id="clip0_273_1513">
<rect width="462" height="312" fill="white" transform="translate(138 18)"/>
</clipPath>
</defs>
</svg>
